<svg width="24.000000" height="24.000000" viewBox="0 0 24 24" fill="none" xmlns="http://www.w3.org/2000/svg" xmlns:xlink="http://www.w3.org/1999/xlink">
	<desc>
			Created with Pixso.
	</desc>
	<defs>
		<clipPath id="clip10_333">
			<rect rx="0.000000" width="23.000000" height="23.000000" transform="translate(0.500000 0.500000)" fill="white" fill-opacity="0"/>
		</clipPath>
	</defs>
	<rect rx="0.000000" width="23.000000" height="23.000000" transform="translate(0.500000 0.500000)" fill="#2E2B44" fill-opacity="0"/>
	<g clip-path="url(#clip10_333)">
		<path d="M15.4 21L15.4 14.03L17.73 14.03L18.08 11.32L15.4 11.32L15.4 9.59C15.4 8.81 15.62 8.27 16.74 8.27L18.17 8.27L18.17 5.85C17.48 5.78 16.78 5.74 16.08 5.75C14.02 5.75 12.6 7.01 12.6 9.33L12.6 11.32L10.26 11.32L10.26 14.03L12.6 14.03L12.6 21L4 21C3.73 21 3.48 20.89 3.29 20.7C3.1 20.51 3 20.26 3 20L3 4C3 3.73 3.1 3.48 3.29 3.29C3.48 3.1 3.73 3 4 3L20 3C20.26 3 20.51 3.1 20.7 3.29C20.89 3.48 21 3.73 21 4L21 20C21 20.26 20.89 20.51 20.7 20.7C20.51 20.89 20.26 21 20 21L15.4 21Z" fill="#2C2D35" fill-opacity="1.000000" fill-rule="nonzero"/>
	</g>
</svg>
