<svg width="79.185791" height="78.379639" viewBox="0 0 79.1858 78.3796" fill="none" xmlns="http://www.w3.org/2000/svg" xmlns:xlink="http://www.w3.org/1999/xlink">
	<desc>
			Created with Pixso.
	</desc>
	<defs/>
	<path id="Star 2" d="M33.95 20.81L17.96 6.34L24.47 26.9L3.2 23.38L19.79 37.15L0 45.69L21.4 48.3L9.36 66.19L28.78 56.82L28.32 78.37L39.59 60L50.86 78.37L50.4 56.82L69.82 66.19L57.78 48.3L79.18 45.69L59.38 37.15L75.97 23.38L54.7 26.9L61.21 6.34L45.22 20.81L39.59 0L33.95 20.81ZM39.59 11.47L35.57 26.31L24.17 16L28.81 30.66L13.64 28.15L25.47 37.97L11.36 44.05L26.62 45.92L18.03 58.67L31.88 51.99L31.55 67.36L39.59 54.26L47.62 67.36L47.3 51.99L61.14 58.67L52.56 45.92L67.82 44.05L53.7 37.97L65.53 28.15L50.37 30.66L55.01 16L43.61 26.31L39.59 11.47Z" fill="#EEDB6D" fill-opacity="1.000000" fill-rule="evenodd"/>
</svg>
